<?xml version="1.0" encoding="utf-8"?>
<!-- Generator: Adobe Illustrator 27.5.0, SVG Export Plug-In . SVG Version: 6.00 Build 0)  -->
<svg version="1.1" id="Capa_1" xmlns="http://www.w3.org/2000/svg" xmlns:xlink="http://www.w3.org/1999/xlink" x="0px" y="0px"
	 viewBox="0 0 100 86.5" style="enable-background:new 0 0 100 86.5;" xml:space="preserve">
<style type="text/css">
	.st0{fill:url(#SVGID_1_);}
	.st1{fill:url(#SVGID_00000150789883782337117500000007905573423710895009_);}
	.st2{fill:url(#SVGID_00000021820007971000324120000013028458829989159311_);}
	.st3{fill:url(#SVGID_00000026137993985324761500000014858565552591781797_);}
	.st4{fill:url(#SVGID_00000149376833693365451860000004785331789276140180_);}
	.st5{fill:#FFFFFF;}
	.st6{fill:none;}
</style>
<g>
	
		<linearGradient id="SVGID_1_" gradientUnits="userSpaceOnUse" x1="30.3477" y1="77.0002" x2="74.7658" y2="77.7767" gradientTransform="matrix(1 0 0 -1 0 100)">
		<stop  offset="0" style="stop-color:#073E96"/>
		<stop  offset="0.2284" style="stop-color:#056EA5"/>
		<stop  offset="0.4712" style="stop-color:#0399B3"/>
		<stop  offset="0.6896" style="stop-color:#01B9BD"/>
		<stop  offset="0.8733" style="stop-color:#00CCC3"/>
		<stop  offset="1" style="stop-color:#00D3C5"/>
	</linearGradient>
	<path class="st0" d="M37.8,21c-1,0-1.8,0.8-1.8,1.8s0.8,1.8,1.8,1.8c1,0,1.8-0.8,1.8-1.8C39.6,21.9,38.8,21,37.8,21z"/>
	
		<linearGradient id="SVGID_00000067943163038462181970000010452315009418043805_" gradientUnits="userSpaceOnUse" x1="30.3551" y1="76.5826" x2="74.7731" y2="77.3591" gradientTransform="matrix(1 0 0 -1 0 100)">
		<stop  offset="0" style="stop-color:#073E96"/>
		<stop  offset="0.2284" style="stop-color:#056EA5"/>
		<stop  offset="0.4712" style="stop-color:#0399B3"/>
		<stop  offset="0.6896" style="stop-color:#01B9BD"/>
		<stop  offset="0.8733" style="stop-color:#00CCC3"/>
		<stop  offset="1" style="stop-color:#00D3C5"/>
	</linearGradient>
	<path style="fill:url(#SVGID_00000067943163038462181970000010452315009418043805_);" d="M61.7,21c-1,0-1.8,0.8-1.8,1.8
		s0.8,1.8,1.8,1.8c1,0,1.8-0.8,1.8-1.8S62.7,21,61.7,21z"/>
	
		<linearGradient id="SVGID_00000142135900373388995490000016952999024930582446_" gradientUnits="userSpaceOnUse" x1="30.3591" y1="76.3515" x2="74.7772" y2="77.128" gradientTransform="matrix(1 0 0 -1 0 100)">
		<stop  offset="0" style="stop-color:#241796"/>
		<stop  offset="0.1803" style="stop-color:#1D3B9F"/>
		<stop  offset="0.7476" style="stop-color:#08A8BA"/>
		<stop  offset="1" style="stop-color:#00D3C5"/>
	</linearGradient>
	<path style="fill:url(#SVGID_00000142135900373388995490000016952999024930582446_);" d="M50,3.2c-6.6,0-12.4,3.2-16.1,8
		c0.3,0,0.5,0,0.8,0h4.8c2,0,4-0.6,5.8-1.6c0.5-0.3,1.2-0.5,1.8-0.5c2.2-0.1,4.2,1.8,4.2,4.1c0,2.3-1.8,4.2-4.1,4.2
		c-0.7,0-1.4-0.2-2-0.5c-2.2-1.2-4.7-2-7.2-2h-2c-1.7,0-3.3,0.3-4.8,0.9c-0.9,2.3-1.4,4.8-1.4,7.4c0,2.6,0.5,5.2,1.5,7.5
		c0.9,0.2,1.8,0.4,2.7,0.4h4.8c2,0,4-0.6,5.8-1.6c0.5-0.3,1.2-0.5,1.8-0.5c2.2,0,4.2,1.8,4.2,4.1c0,2.3-1.8,4.2-4.1,4.2
		c-0.7,0-1.4-0.2-2-0.5c-2.2-1.2-4.7-2-7.2-2h-2c-0.6,0-1.2,0-1.8,0.1c3.7,5.1,9.6,8.4,16.3,8.4c11.1,0,20.1-9,20.1-20.1
		C70.1,12.2,61.1,3.2,50,3.2z M61.8,27.9c-0.8,0-1.6-0.2-2.3-0.6c-2.6-1.4-5.5-2.4-8.5-2.4h-2.4c-3,0-5.8,0.9-8.5,2.4
		c-0.7,0.4-1.5,0.6-2.3,0.6c-2.7,0-4.9-2.2-4.9-5c0-2.7,2.3-4.9,5-4.8c0.8,0,1.5,0.2,2.2,0.6c2.1,1.1,4.4,1.9,6.8,1.9h5.7
		c2.4,0,4.7-0.8,6.8-1.9c0.7-0.3,1.4-0.5,2.2-0.6c2.7-0.1,4.9,2.1,5,4.8C66.7,25.6,64.5,27.9,61.8,27.9z"/>
	
		<linearGradient id="SVGID_00000062177405598372861490000014196172738866953374_" gradientUnits="userSpaceOnUse" x1="30.5299" y1="66.5803" x2="74.9478" y2="67.3568" gradientTransform="matrix(1 0 0 -1 0 100)">
		<stop  offset="0" style="stop-color:#073E96"/>
		<stop  offset="0.2284" style="stop-color:#056EA5"/>
		<stop  offset="0.4712" style="stop-color:#0399B3"/>
		<stop  offset="0.6896" style="stop-color:#01B9BD"/>
		<stop  offset="0.8733" style="stop-color:#00CCC3"/>
		<stop  offset="1" style="stop-color:#00D3C5"/>
	</linearGradient>
	<circle style="fill:url(#SVGID_00000062177405598372861490000014196172738866953374_);" cx="46.5" cy="33.1" r="1.5"/>
	
		<linearGradient id="SVGID_00000021116567551184100600000005023291569136384188_" gradientUnits="userSpaceOnUse" x1="30.1827" y1="86.4433" x2="74.6005" y2="87.2199" gradientTransform="matrix(1 0 0 -1 0 100)">
		<stop  offset="0" style="stop-color:#073E96"/>
		<stop  offset="0.2284" style="stop-color:#056EA5"/>
		<stop  offset="0.4712" style="stop-color:#0399B3"/>
		<stop  offset="0.6896" style="stop-color:#01B9BD"/>
		<stop  offset="0.8733" style="stop-color:#00CCC3"/>
		<stop  offset="1" style="stop-color:#00D3C5"/>
	</linearGradient>
	<circle style="fill:url(#SVGID_00000021116567551184100600000005023291569136384188_);" cx="47.2" cy="13.3" r="1.5"/>
</g>
<g>
	<g>
		<path class="st5" d="M7.6,59.7H5.7v5.1H3.6v-16h4.6c1.3,0.2,2.4,0.7,3.3,1.6c1.1,1.1,1.6,2.3,1.6,3.8c0,1.5-0.5,2.8-1.6,3.9
			c-0.7,0.7-1.3,1.2-1.7,1.2l3.6,5.5h-2.5L7.6,59.7z M5.7,50.8v6.7h1.9c0.9,0,1.7-0.3,2.4-1s1-1.5,1-2.4s-0.3-1.7-1-2.4
			s-1.4-1-2.4-1C7.6,50.8,5.7,50.8,5.7,50.8z"/>
		<path class="st5" d="M17.7,62.5c0.4,0.3,1,0.5,1.9,0.5c1,0,1.8-0.3,2.5-1c0.1-0.1,0.3-0.3,0.5-0.6l2.1,0.7
			c-0.5,0.7-0.9,1.2-1.1,1.4c-1.1,1.1-2.5,1.7-4,1.7c-1.6,0-2.9-0.6-4-1.7c-1.1-1.1-1.7-2.5-1.7-4s0.6-2.9,1.7-4
			c1.1-1.1,2.5-1.7,4-1.7c1.4,0,2.5,0.4,3.5,1.2c0.2,0.1,0.3,0.3,0.5,0.5c0.1,0.1,0.3,0.3,0.6,0.6l-1,1L17.7,62.5z M21.2,56
			c-0.2-0.2-0.8-0.3-1.6-0.3c-1,0-1.8,0.3-2.5,1s-1,1.5-1,2.5c0,0.8,0.1,1.3,0.3,1.6L21.2,56z"/>
		<path class="st5" d="M28.7,63.5v4.8h-2.1V54.5h2.1v0.9c1-1.2,2.2-1.8,3.5-1.8c1.6,0,2.9,0.6,4,1.7c1.1,1.1,1.7,2.5,1.7,4
			s-0.6,2.9-1.7,4c-1.1,1.1-2.5,1.7-4,1.7C30.9,65.1,29.7,64.5,28.7,63.5z M28.7,58.5v1.6c0.1,0.6,0.5,1.2,1,1.7
			c0.7,0.7,1.5,1,2.5,1s1.8-0.3,2.5-1c0.7-0.7,1-1.5,1-2.5c0-1-0.3-1.8-1-2.5c-0.7-0.7-1.5-1-2.5-1c-1,0-1.8,0.3-2.5,1
			C29.2,57.3,28.8,57.9,28.7,58.5z"/>
		<path class="st5" d="M44.3,64.9c-1.3,0-2.3-0.4-3.2-1.2c-0.8-0.8-1.2-1.8-1.2-3v-6.3H42v6.2c0,0.6,0.2,1.1,0.7,1.5
			c0.4,0.4,1,0.6,1.6,0.6c0.6,0,1.1-0.2,1.5-0.6c0.4-0.4,0.7-0.9,0.7-1.5v-6.2h2.1v6.3c0,1.2-0.4,2.2-1.2,3
			C46.5,64.5,45.5,64.9,44.3,64.9z M44.8,50.7h2.5l-2.7,2.8h-2L44.8,50.7z"/>
		<path class="st5" d="M53.1,63.5v1.3h-2.1v-16h2.1v6.4c1-1,2.2-1.5,3.5-1.5c1.6,0,2.9,0.6,4,1.7c1.1,1.1,1.7,2.5,1.7,4
			s-0.6,2.9-1.7,4c-1.1,1.1-2.5,1.7-4,1.7C55.3,65.1,54.1,64.5,53.1,63.5z M53.1,58.5v1.6c0.1,0.6,0.5,1.2,1,1.7
			c0.7,0.7,1.5,1,2.5,1s1.8-0.3,2.5-1c0.7-0.7,1-1.5,1-2.5c0-1-0.3-1.8-1-2.5c-0.7-0.7-1.5-1-2.5-1s-1.8,0.3-2.5,1
			C53.6,57.3,53.3,57.9,53.1,58.5z"/>
		<path class="st5" d="M66.7,48.7v16.1h-2.1V48.7H66.7z"/>
		<path class="st5" d="M71.4,50.6c0.3,0.3,0.4,0.6,0.4,1c0,0.4-0.1,0.8-0.4,1s-0.6,0.4-1,0.4c-0.4,0-0.7-0.1-1-0.4
			c-0.3-0.3-0.4-0.6-0.4-1c0-0.4,0.1-0.8,0.4-1s0.6-0.4,1-0.4C70.8,50.2,71.1,50.4,71.4,50.6z M71.4,54.5v10.3h-2.1V54.5H71.4z"/>
		<path class="st5" d="M82.3,61.2l2.1,0.7c-0.5,0.7-0.9,1.2-1.1,1.4c-1.1,1.1-2.5,1.7-4,1.7c-1.6,0-2.9-0.6-4-1.7
			c-1.1-1.1-1.7-2.5-1.7-4s0.6-2.9,1.7-4c1.1-1.1,2.5-1.7,4-1.7c1.6,0,2.9,0.6,4,1.7c0.2,0.2,0.6,0.7,1.1,1.4l-2.1,0.8
			c-0.3-0.3-0.4-0.5-0.5-0.6c-0.7-0.7-1.5-1-2.5-1c-1,0-1.8,0.3-2.5,1s-1.1,1.5-1.1,2.5c0,1,0.3,1.8,1.1,2.5c0.7,0.7,1.5,1,2.5,1
			c1,0,1.8-0.3,2.5-1C81.8,61.8,82,61.6,82.3,61.2z"/>
		<path class="st5" d="M95.2,55.2v-0.7h2.1v10.3h-2.1v-1.3c-1,1-2.2,1.6-3.5,1.6c-1.6,0-2.9-0.6-4-1.7c-1.1-1.1-1.7-2.5-1.7-4
			s0.6-2.9,1.7-4c1.1-1.1,2.5-1.7,4-1.7C93,53.6,94.2,54.2,95.2,55.2z M95.2,60.1v-1.5c-0.1-0.7-0.4-1.2-1-1.8c-0.7-0.7-1.6-1-2.5-1
			c-1,0-1.8,0.3-2.5,1c-0.7,0.7-1.1,1.5-1.1,2.5c0,1,0.3,1.8,1.1,2.5c0.7,0.7,1.5,1,2.5,1c1,0,1.8-0.3,2.5-1
			C94.7,61.3,95.1,60.8,95.2,60.1z"/>
	</g>
	<g>
		<path class="st5" d="M27.6,81l2.1,0.7c-0.5,0.7-0.9,1.2-1.1,1.4c-1.1,1.1-2.5,1.7-4,1.7c-1.6,0-2.9-0.6-4-1.7
			c-1.1-1.1-1.7-2.5-1.7-4s0.6-2.9,1.7-4c1.1-1.1,2.5-1.7,4-1.7c1.6,0,2.9,0.6,4,1.7c0.2,0.2,0.6,0.7,1.1,1.4l-2.1,0.8
			c-0.3-0.3-0.5-0.5-0.5-0.6c-0.7-0.7-1.5-1-2.5-1c-1,0-1.8,0.3-2.5,1.1c-0.7,0.7-1,1.5-1,2.5c0,1,0.4,1.8,1,2.5
			c0.7,0.7,1.5,1.1,2.5,1.1c1,0,1.8-0.3,2.5-1C27.1,81.6,27.3,81.3,27.6,81z"/>
		<path class="st5" d="M34.8,82.2c0.3,0.3,1,0.5,1.9,0.5c1,0,1.8-0.3,2.5-1c0.1-0.1,0.3-0.3,0.5-0.6l2.1,0.7
			c-0.5,0.7-0.9,1.2-1.1,1.4c-1.1,1.1-2.5,1.7-4,1.7c-1.6,0-2.9-0.6-4-1.7c-1.1-1.1-1.7-2.5-1.7-4s0.6-2.9,1.7-4
			c1.1-1.1,2.5-1.7,4-1.7c1.3,0,2.5,0.4,3.5,1.2c0.2,0.1,0.3,0.3,0.5,0.4c0.1,0.1,0.3,0.3,0.6,0.6l-1,1.1L34.8,82.2z M38.2,75.8
			c-0.2-0.2-0.8-0.3-1.6-0.3c-1,0-1.8,0.3-2.5,1.1c-0.7,0.7-1,1.5-1,2.5c0,0.8,0.1,1.3,0.3,1.6L38.2,75.8z"/>
		<path class="st5" d="M45.8,68.5v16.1h-2.1V68.5H45.8z"/>
		<path class="st5" d="M52.7,84.7c-1.3,0-2.3-0.4-3.2-1.2c-0.8-0.8-1.2-1.8-1.2-3v-6.3h2.1v6.2c0,0.6,0.2,1.1,0.7,1.5
			c0.4,0.4,1,0.6,1.6,0.6c0.6,0,1.1-0.2,1.5-0.6c0.4-0.4,0.7-0.9,0.7-1.5v-6.2h2.1v6.3c0,1.2-0.4,2.2-1.2,3
			C54.9,84.3,53.9,84.7,52.7,84.7z"/>
		<path class="st5" d="M61.5,68.5v16.1h-2.1V68.5H61.5z"/>
		<path class="st5" d="M72.9,75v-0.7H75v10.3h-2.1v-1.3c-1,1-2.2,1.6-3.5,1.6c-1.6,0-2.9-0.6-4-1.7c-1.1-1.1-1.7-2.5-1.7-4
			s0.6-2.9,1.7-4s2.5-1.7,4-1.7C70.8,73.4,71.9,73.9,72.9,75z M72.9,79.9v-1.5c-0.1-0.7-0.4-1.2-1-1.8c-0.7-0.7-1.5-1-2.5-1
			s-1.8,0.3-2.5,1c-0.7,0.7-1.1,1.5-1.1,2.5c0,1,0.3,1.8,1.1,2.5c0.7,0.7,1.5,1.1,2.5,1.1c1,0,1.8-0.3,2.5-1
			C72.5,81.1,72.8,80.5,72.9,79.9z"/>
		<path class="st5" d="M79.6,75.6c0.8-1.1,1.7-1.6,2.9-1.7v2.2c-0.8,0-1.4,0.3-1.8,0.7c-0.7,0.7-1,1.5-1.1,2.4v5.3h-2.1V74.2h2.1
			V75.6z"/>
	</g>
</g>
<rect class="st6" width="100" height="100"/>
</svg>
