<?xml version="1.0" encoding="utf-8"?>
<!-- Generator: Adobe Illustrator 27.5.0, SVG Export Plug-In . SVG Version: 6.00 Build 0)  -->
<svg version="1.1" id="Capa_1" xmlns="http://www.w3.org/2000/svg" xmlns:xlink="http://www.w3.org/1999/xlink" x="0px" y="0px"
	 viewBox="0 0 100 100" style="enable-background:new 0 0 100 100;" xml:space="preserve">
<style type="text/css">
	.st0{fill:url(#SVGID_1_);}
	.st1{fill:url(#SVGID_00000114771873228869499070000010606325171252668800_);}
	.st2{fill:url(#SVGID_00000141420712052996986050000016792590369720306608_);}
	.st3{fill:url(#SVGID_00000036221301366391814560000004791886942814657197_);}
	.st4{fill:url(#SVGID_00000183945951708070335030000008408487143110389911_);}
</style>
<g>
	<linearGradient id="SVGID_1_" gradientUnits="userSpaceOnUse" x1="4.4507" y1="49.2984" x2="107.4012" y2="47.4985">
		<stop  offset="0" style="stop-color:#073E96"/>
		<stop  offset="0.2284" style="stop-color:#056EA5"/>
		<stop  offset="0.4712" style="stop-color:#0399B3"/>
		<stop  offset="0.6896" style="stop-color:#01B9BD"/>
		<stop  offset="0.8733" style="stop-color:#00CCC3"/>
		<stop  offset="1" style="stop-color:#00D3C5"/>
	</linearGradient>
	<path class="st0" d="M21.66,44.76c-2.34,0-4.24,1.9-4.24,4.24c0,2.34,1.9,4.24,4.24,4.24s4.24-1.9,4.24-4.24
		C25.9,46.66,24.01,44.76,21.66,44.76z"/>
	
		<linearGradient id="SVGID_00000178172740565290475850000000756707972299969716_" gradientUnits="userSpaceOnUse" x1="4.4678" y1="50.2663" x2="107.418" y2="48.4665">
		<stop  offset="0" style="stop-color:#073E96"/>
		<stop  offset="0.2284" style="stop-color:#056EA5"/>
		<stop  offset="0.4712" style="stop-color:#0399B3"/>
		<stop  offset="0.6896" style="stop-color:#01B9BD"/>
		<stop  offset="0.8733" style="stop-color:#00CCC3"/>
		<stop  offset="1" style="stop-color:#00D3C5"/>
	</linearGradient>
	<path style="fill:url(#SVGID_00000178172740565290475850000000756707972299969716_);" d="M77.05,44.76c-2.34,0-4.24,1.9-4.24,4.24
		c0,2.34,1.9,4.24,4.24,4.24c2.34,0,4.24-1.9,4.24-4.24C81.29,46.66,79.39,44.76,77.05,44.76z"/>
	
		<linearGradient id="SVGID_00000148643901828760095070000017998010473762384543_" gradientUnits="userSpaceOnUse" x1="4.477" y1="50.7959" x2="107.4275" y2="48.996">
		<stop  offset="0" style="stop-color:#241796"/>
		<stop  offset="0.1803" style="stop-color:#1D3B9F"/>
		<stop  offset="0.7476" style="stop-color:#08A8BA"/>
		<stop  offset="1" style="stop-color:#00D3C5"/>
	</linearGradient>
	<path style="fill:url(#SVGID_00000148643901828760095070000017998010473762384543_);" d="M50,3.44c-15.24,0-28.77,7.33-37.26,18.65
		c0.6,0.05,1.2,0.07,1.8,0.07H25.7c4.73,0,9.27-1.47,13.45-3.69c1.27-0.68,2.72-1.07,4.26-1.11c5.23-0.12,9.73,4.2,9.82,9.43
		c0.09,5.38-4.24,9.77-9.6,9.77c-1.64,0-3.18-0.41-4.53-1.14c-5.17-2.78-10.8-4.62-16.67-4.62H17.8c-3.83,0-7.55,0.79-11.11,2.11
		C4.61,38.2,3.44,43.96,3.44,50c0,6.15,1.2,12.02,3.37,17.39c2.05,0.53,4.14,0.85,6.29,0.85h11.16c4.73,0,9.27-1.47,13.45-3.69
		c1.27-0.68,2.72-1.07,4.26-1.11c5.23-0.12,9.73,4.2,9.82,9.43c0.09,5.38-4.24,9.77-9.6,9.77c-1.64,0-3.18-0.41-4.53-1.14
		c-5.17-2.78-10.8-4.62-16.67-4.62h-4.64c-1.4,0-2.78,0.11-4.15,0.31C20.67,88.91,34.44,96.56,50,96.56
		c25.71,0,46.56-20.84,46.56-46.56C96.56,24.29,75.71,3.44,50,3.44z M77.33,60.58c-1.93,0-3.75-0.48-5.34-1.34
		c-6.09-3.27-12.71-5.44-19.63-5.44h-5.46c-6.91,0-13.54,2.17-19.63,5.44c-1.59,0.85-3.41,1.34-5.34,1.34
		c-6.31,0-11.41-5.17-11.3-11.5c0.11-6.15,5.41-11.24,11.57-11.1c1.81,0.04,3.51,0.51,5.01,1.31c4.92,2.61,10.27,4.34,15.84,4.34
		h13.15c5.58,0,10.92-1.73,15.84-4.34c1.5-0.8,3.2-1.26,5.01-1.31c6.15-0.14,11.46,4.95,11.57,11.1
		C88.74,55.41,83.64,60.58,77.33,60.58z"/>
	
		<linearGradient id="SVGID_00000112621497906364990600000006303373607821183163_" gradientUnits="userSpaceOnUse" x1="4.873" y1="73.4462" x2="107.823" y2="71.6464">
		<stop  offset="0" style="stop-color:#073E96"/>
		<stop  offset="0.2284" style="stop-color:#056EA5"/>
		<stop  offset="0.4712" style="stop-color:#0399B3"/>
		<stop  offset="0.6896" style="stop-color:#01B9BD"/>
		<stop  offset="0.8733" style="stop-color:#00CCC3"/>
		<stop  offset="1" style="stop-color:#00D3C5"/>
	</linearGradient>
	<circle style="fill:url(#SVGID_00000112621497906364990600000006303373607821183163_);" cx="41.96" cy="72.8" r="3.6"/>
	
		<linearGradient id="SVGID_00000155139096744751552480000011847496708816245414_" gradientUnits="userSpaceOnUse" x1="4.0682" y1="27.4098" x2="107.0182" y2="25.61">
		<stop  offset="0" style="stop-color:#073E96"/>
		<stop  offset="0.2284" style="stop-color:#056EA5"/>
		<stop  offset="0.4712" style="stop-color:#0399B3"/>
		<stop  offset="0.6896" style="stop-color:#01B9BD"/>
		<stop  offset="0.8733" style="stop-color:#00CCC3"/>
		<stop  offset="1" style="stop-color:#00D3C5"/>
	</linearGradient>
	<circle style="fill:url(#SVGID_00000155139096744751552480000011847496708816245414_);" cx="43.4" cy="26.72" r="3.6"/>
</g>
</svg>
